<?xml version="1.0" encoding="UTF-8"?><svg xmlns="http://www.w3.org/2000/svg" viewBox="0 0 306 306"><defs><style>.cls-1{fill:#fff;}.cls-2{fill:#80b647;}.cls-3{fill:#d9d9d9;mix-blend-mode:multiply;}.cls-4{isolation:isolate;}</style></defs><g class="cls-4"><g id="_ëîé_1"><g><circle class="cls-2" cx="153" cy="153" r="153"/><path class="cls-3" d="M306,153c0,71.3-48.78,131.22-114.8,148.18l-122.58-122.58,90.11,5,77.6-101.97,69.66,69.66c.02,.56,.02,1.13,.02,1.71Z"/><path class="cls-1" d="M70.33,180.07c-8.66-6.51-10.41-18.86-3.9-27.52,3.75-4.98,9.48-7.84,15.72-7.84,4.28,0,8.36,1.36,11.8,3.95l37.76,28.39,76.94-92.67c3.74-4.56,9.29-7.19,15.21-7.19,4.59,0,8.9,1.54,12.45,4.46,8.38,6.87,9.61,19.28,2.74,27.66l-100.84,121.81-67.88-51.04Z"/></g></g></g></svg>