<?xml version="1.0" encoding="UTF-8"?><svg id="Icon_Set" xmlns="http://www.w3.org/2000/svg" viewBox="0 0 248 245.41"><defs><style>.cls-1{fill:#312733;}</style></defs><path class="cls-1" d="M135.71,67.86C135.71,30.44,105.27,0,67.86,0S0,30.44,0,67.86s30.44,67.86,67.86,67.86,67.86-30.44,67.86-67.86Zm-127.71,0c0-33,26.85-59.86,59.86-59.86s59.86,26.85,59.86,59.86-26.85,59.86-59.86,59.86S8,100.86,8,67.86Z"/><path class="cls-1" d="M81.31,79.23c-2.21,0-4,1.79-4,4,0,3.09-2.52,5.61-5.61,5.61h-7.69c-3.09,0-5.61-2.52-5.61-5.61v-3.29h9.45c2.21,0,4-1.79,4-4s-1.79-4-4-4h-9.45v-6.06h9.45c2.21,0,4-1.79,4-4s-1.79-4-4-4h-9.45v-5.4c0-3.09,2.52-5.61,5.61-5.61h7.69c3.09,0,5.61,2.52,5.61,5.61,0,2.21,1.79,4,4,4s4-1.79,4-4c0-7.5-6.1-13.61-13.61-13.61h-7.69c-7.5,0-13.61,6.1-13.61,13.61v5.4h-9.66c-2.21,0-4,1.79-4,4s1.79,4,4,4h9.66v6.06h-9.66c-2.21,0-4,1.79-4,4s1.79,4,4,4h9.66v3.29c0,7.5,6.1,13.61,13.61,13.61h7.69c13.26,0,17.59-17.61,9.61-17.61Z"/><path class="cls-1" d="M180.14,109.7c-37.42,0-67.86,30.44-67.86,67.86s30.44,67.86,67.86,67.86,67.86-30.44,67.86-67.86-30.44-67.86-67.86-67.86Zm0,127.71c-33,0-59.86-26.85-59.86-59.86s26.85-59.86,59.86-59.86,59.86,26.85,59.86,59.86-26.85,59.86-59.86,59.86Z"/><path class="cls-1" d="M182.9,170.16h-5.52c-3.84,0-3.84-5.81,0-5.81h5.52c.71,0,1.4,.26,1.93,.73,1.65,1.47,4.18,1.32,5.65-.33,1.47-1.65,1.32-4.18-.33-5.65-1.69-1.5-3.78-2.42-6-2.67v-5.3c0-2.21-1.79-4-4-4s-4,1.79-4,4v5.29c-5.43,.62-9.67,5.24-9.67,10.83,0,6.01,4.89,10.9,10.9,10.9h5.52c1.6,0,2.9,1.3,2.9,2.9v8.28c0,1.6-1.3,2.9-2.9,2.9h-5.52c-1.6,0-2.9-1.3-2.9-2.9,0-2.21-1.79-4-4-4s-4,1.79-4,4c0,5.59,4.23,10.21,9.67,10.83v3.8c0,2.21,1.79,4,4,4s4-1.79,4-4v-3.8c5.43-.62,9.67-5.24,9.67-10.83v-8.28c0-6.01-4.89-10.9-10.9-10.9Z"/><path class="cls-1" d="M171.71,30.52c11.39,0,20.65,9.27,20.65,20.65v9.15l-4.72-4.72c-1.56-1.56-4.1-1.56-5.66,0-1.56,1.56-1.56,4.09,0,5.66l11.55,11.55c1.55,1.55,4.1,1.56,5.66,0l11.55-11.55c1.56-1.56,1.56-4.09,0-5.66-1.56-1.56-4.1-1.56-5.66,0l-4.72,4.72v-9.15c0-15.8-12.85-28.65-28.65-28.65-2.21,0-4,1.79-4,4s1.79,4,4,4Z"/><path class="cls-1" d="M73.36,216.89c-11.39,0-20.65-9.27-20.65-20.65v-9.15l4.72,4.72c.78,.78,1.8,1.17,2.83,1.17s2.05-.39,2.83-1.17c1.56-1.56,1.56-4.09,0-5.66l-11.55-11.55c-1.58-1.58-4.16-1.51-5.66,0l-11.55,11.55c-1.56,1.56-1.56,4.09,0,5.66,1.56,1.56,4.1,1.56,5.66,0l4.72-4.72v9.15c0,15.8,12.85,28.65,28.65,28.65,2.21,0,4-1.79,4-4s-1.79-4-4-4Z"/></svg>