<svg width="1600" height="1200" viewBox="0 0 1600 1200" fill="none" xmlns="http://www.w3.org/2000/svg">
<g opacity="0.5" clip-path="url(#clip0_5_2)">
<rect width="1600" height="1200" fill="#1B1928"/>
<mask id="mask0_5_2" style="mask-type:alpha" maskUnits="userSpaceOnUse" x="0" y="0" width="1600" height="1200">
<rect width="1599.06" height="1200" fill="#091941"/>
</mask>
<g mask="url(#mask0_5_2)">
<rect opacity="0.8" width="1599.06" height="1200" fill="#091941"/>
<g opacity="0.8" filter="url(#filter0_b_5_2)">
<rect width="1599.06" height="1200" fill="white" fill-opacity="0.05"/>
<rect x="1" y="1" width="1597.06" height="1198" stroke="url(#paint0_linear_5_2)" stroke-width="2"/>
</g>
<g filter="url(#filter1_f_5_2)">
<ellipse cx="45.5289" cy="1357.62" rx="438.632" ry="511.523" fill="#FF5C00" fill-opacity="0.2"/>
</g>
<g filter="url(#filter2_f_5_2)">
<path d="M672.94 97.2656C672.94 379.772 937.954 516.211 695.704 516.211C453.454 516.211 -393.103 233.874 -393.103 -48.6328C-393.103 -331.139 -196.721 -560.156 45.5289 -560.156C287.779 -560.156 672.94 -185.241 672.94 97.2656Z" fill="url(#paint1_radial_5_2)"/>
</g>
<g filter="url(#filter3_f_5_2)">
<ellipse cx="1481.91" cy="-83.7891" rx="392.548" ry="468.164" fill="url(#paint2_linear_5_2)" fill-opacity="0.5"/>
</g>
<g filter="url(#filter4_f_5_2)">
<ellipse cx="1430.83" cy="1160.74" rx="392.548" ry="468.164" fill="url(#paint3_linear_5_2)" fill-opacity="0.5"/>
</g>
</g>
<path d="M803.482 1217.71C-1947.03 -1120.12 1700.72 1387.9 1737.59 917.647C1774.46 447.392 1289.18 210.957 736.916 0.822404" stroke="#091941"/>
<path d="M1836.56 167.501C1287.56 4.00077 913.565 307.749 670.064 167.5C426.563 27.2506 -15.936 123.001 -60.9354 621.501" stroke="#091941"/>
<path d="M1922.56 896.066C1400.06 1085.57 1119.56 1081.22 757.128 990.066C394.692 898.914 140.064 990.066 -43.9361 1154.57" stroke="#091941"/>
<rect x="542" y="995.866" width="39" height="39" transform="rotate(-7.16752 542 995.866)" fill="url(#paint4_linear_5_2)"/>
<rect x="1135.86" y="146" width="39" height="39" transform="rotate(85.0654 1135.86 146)" fill="url(#paint5_linear_5_2)"/>
<rect x="360.17" y="116.899" width="39" height="39" transform="rotate(124.16 360.17 116.899)" fill="url(#paint6_linear_5_2)"/>
<rect x="873.318" y="680.888" width="39" height="39" transform="rotate(153.453 873.318 680.888)" fill="url(#paint7_linear_5_2)"/>
</g>
<defs>
<filter id="filter0_b_5_2" x="-24" y="-24" width="1647.06" height="1248" filterUnits="userSpaceOnUse" color-interpolation-filters="sRGB">
<feFlood flood-opacity="0" result="BackgroundImageFix"/>
<feGaussianBlur in="BackgroundImageFix" stdDeviation="12"/>
<feComposite in2="SourceAlpha" operator="in" result="effect1_backgroundBlur_5_2"/>
<feBlend mode="normal" in="SourceGraphic" in2="effect1_backgroundBlur_5_2" result="shape"/>
</filter>
<filter id="filter1_f_5_2" x="-593.103" y="646.094" width="1277.26" height="1423.05" filterUnits="userSpaceOnUse" color-interpolation-filters="sRGB">
<feFlood flood-opacity="0" result="BackgroundImageFix"/>
<feBlend mode="normal" in="SourceGraphic" in2="BackgroundImageFix" result="shape"/>
<feGaussianBlur stdDeviation="100" result="effect1_foregroundBlur_5_2"/>
</filter>
<filter id="filter2_f_5_2" x="-535.103" y="-702.156" width="1474.87" height="1360.37" filterUnits="userSpaceOnUse" color-interpolation-filters="sRGB">
<feFlood flood-opacity="0" result="BackgroundImageFix"/>
<feBlend mode="normal" in="SourceGraphic" in2="BackgroundImageFix" result="shape"/>
<feGaussianBlur stdDeviation="71" result="effect1_foregroundBlur_5_2"/>
</filter>
<filter id="filter3_f_5_2" x="889.363" y="-751.953" width="1185.1" height="1336.33" filterUnits="userSpaceOnUse" color-interpolation-filters="sRGB">
<feFlood flood-opacity="0" result="BackgroundImageFix"/>
<feBlend mode="normal" in="SourceGraphic" in2="BackgroundImageFix" result="shape"/>
<feGaussianBlur stdDeviation="100" result="effect1_foregroundBlur_5_2"/>
</filter>
<filter id="filter4_f_5_2" x="838.281" y="492.578" width="1185.1" height="1336.33" filterUnits="userSpaceOnUse" color-interpolation-filters="sRGB">
<feFlood flood-opacity="0" result="BackgroundImageFix"/>
<feBlend mode="normal" in="SourceGraphic" in2="BackgroundImageFix" result="shape"/>
<feGaussianBlur stdDeviation="100" result="effect1_foregroundBlur_5_2"/>
</filter>
<linearGradient id="paint0_linear_5_2" x1="110.28" y1="84.3243" x2="1691.59" y2="949.025" gradientUnits="userSpaceOnUse">
<stop stop-color="white"/>
<stop offset="1" stop-color="white" stop-opacity="0"/>
</linearGradient>
<radialGradient id="paint1_radial_5_2" cx="0" cy="0" r="1" gradientUnits="userSpaceOnUse" gradientTransform="translate(-569.111 -328.711) rotate(31.6702) scale(1191.9 1106.21)">
<stop stop-color="#50CAFF"/>
<stop offset="1" stop-color="#50CAFF" stop-opacity="0"/>
</radialGradient>
<linearGradient id="paint2_linear_5_2" x1="1110.73" y1="485.194" x2="2298.03" y2="-579.353" gradientUnits="userSpaceOnUse">
<stop stop-color="white" stop-opacity="0.35"/>
<stop offset="1" stop-color="#FAFF00" stop-opacity="0.32"/>
</linearGradient>
<linearGradient id="paint3_linear_5_2" x1="1316.45" y1="956.25" x2="2143.37" y2="849.417" gradientUnits="userSpaceOnUse">
<stop stop-color="#00FFA3" stop-opacity="0.08"/>
<stop offset="1" stop-color="#00FFA3" stop-opacity="0.32"/>
</linearGradient>
<linearGradient id="paint4_linear_5_2" x1="542" y1="1034.87" x2="581" y2="995.866" gradientUnits="userSpaceOnUse">
<stop stop-color="#254A71"/>
<stop offset="1" stop-color="#254A71" stop-opacity="0"/>
</linearGradient>
<linearGradient id="paint5_linear_5_2" x1="1139.86" y1="149" x2="1174.86" y2="188.5" gradientUnits="userSpaceOnUse">
<stop stop-color="#254A71"/>
<stop offset="1" stop-color="#254A71" stop-opacity="0"/>
</linearGradient>
<linearGradient id="paint6_linear_5_2" x1="364.17" y1="119.899" x2="399.17" y2="159.399" gradientUnits="userSpaceOnUse">
<stop stop-color="#336498" stop-opacity="0.53"/>
<stop offset="1" stop-color="#1C4876"/>
</linearGradient>
<linearGradient id="paint7_linear_5_2" x1="877.318" y1="683.888" x2="912.318" y2="723.388" gradientUnits="userSpaceOnUse">
<stop stop-color="#336498" stop-opacity="0.53"/>
<stop offset="1" stop-color="#1C4876"/>
</linearGradient>
<clipPath id="clip0_5_2">
<rect width="1600" height="1200" fill="white"/>
</clipPath>
</defs>
</svg>
