<?xml version="1.0" encoding="UTF-8"?><svg id="_15_wallet" xmlns="http://www.w3.org/2000/svg" viewBox="0 0 495.99 495.79"><defs><style>.cls-1{fill:#312733;}</style></defs><path class="cls-1" d="M480,303.81h-48v-24c0-13.23-10.77-24-24-24h-80c-6.89,0-13.08,2.97-17.45,7.64l-86.55-14.43v-20.04c23.87-13.86,40-39.64,40-69.17h8c13.23-.01,23.99-10.78,23.99-24s-10.76-24-23.99-24h-3.84l4.39-10.17c8.21-19.06,6.75-41.06-3.93-58.85-6.77-11.27-16.67-20.11-28.63-25.56l-22.33-10.17c-26.34-12-58.69-8.49-81.85,8.88l-12.62,9.47,.02,.02c-12.49,3.26-23.5,11.29-30.26,22.57-8.82,14.68-9.51,32.6-1.84,47.92l7.95,15.89h-3.06c-13.23,0-24,10.77-24,24s10.76,23.99,24,24h8c0,29.53,16.13,55.32,40,69.17v20.05l-97.21,16.19c-27.12,4.52-46.79,27.76-46.79,55.24v167.33c0,4.43,3.58,8,8,8H479.99c8.83,0,16-7.17,16-16v-159.98c.01-8.83-7.16-16-15.99-16ZM264,127.81h8c4.41,0,7.99,3.58,7.99,8s-3.58,8-7.99,8h-8v-16Zm144,144c4.41,0,8,3.58,8,8v24h-50.65c-4.28-13.69-13.64-25.06-25.9-32h68.55Zm-88,9.56c12.59,2.58,22.99,11.05,28.24,22.44h-28.24v-22.44ZM104,143.81h-8c-4.41,0-8-3.59-8-8s3.59-8,8-8h8v16Zm1.42-55.05c-5.2-10.4-4.73-22.56,1.25-32.53,6.08-10.13,17.2-16.42,29.01-16.42,12.55,0,24.19,6.23,31.15,16.66l2.51,3.77,13.32-8.87-2.51-3.77c-7.22-10.82-17.98-18.42-30.18-21.8,18.11-11.23,41.59-13.04,61.07-4.18l22.33,10.16c9,4.11,16.46,10.76,21.54,19.24,8.03,13.39,9.14,29.94,2.96,44.28l-.55,1.26-10.16-20.33c-1.05-2.13-3.01-3.66-5.32-4.21-2.29-.52-4.73-.03-6.64,1.39l-12.8,9.6c-11.01,8.25-24.65,12.8-38.4,12.8s-27.39-4.55-38.4-12.81l-12.8-9.6c-1.89-1.42-4.3-1.9-6.64-1.38-2.31,.54-4.25,2.08-5.32,4.2l-10.85,21.69-4.57-9.15Zm14.58,71.05v-46.11l10.87-21.74,5.13,3.85c13.76,10.32,30.81,16,48,16s34.24-5.68,48-16l5.13-3.85,10.87,21.74v46.11c0,35.29-28.71,64-64,64s-64-28.71-64-64Zm61.42,167.99h5.17l13.06,32.64-15.65,67.78-15.65-67.78,13.07-32.64Zm-12.59-33.18l2.66-8,6.85,6.84c1.56,1.56,3.61,2.34,5.66,2.34s4.1-.78,5.66-2.34l6.85-6.84,2.66,8-11.46,17.18h-7.43l-11.45-17.18Zm15.17-18.12l-24-24v-16.38c7.59,2.38,15.64,3.69,24,3.69s16.42-1.31,24-3.69v16.38l-24,24Zm56,43.31v159.98H95.99v-135.99h-16v135.99H16v-159.33c0-19.63,14.06-36.22,33.42-39.45l99.83-16.63,9.59,9.59-6.43,19.3c-.78,2.34-.44,4.91,.93,6.97l13.66,20.5-14.43,36.08c-.61,1.51-.74,3.17-.37,4.77l24,104c.83,3.63,4.07,6.19,7.8,6.19s6.96-2.56,7.79-6.19l24-104c.37-1.59,.24-3.25-.36-4.77l-14.44-36.08,13.67-20.5c1.37-2.06,1.71-4.63,.93-6.97l-6.44-19.3,9.6-9.59,85.37,14.22c-.01,.41-.12,.79-.12,1.21v24h-48c-8.82,0-16,7.17-16,16Zm15.99,0h224v23.99c0,22.06-17.93,39.99-40,39.99h-48v-23.99c0-4.42-3.57-8-8-8h-32c-4.42,0-8,3.58-8,8v23.99h-48c-22.04,0-39.97-17.92-40-39.95v-24.03Zm120.01,47.99v40.01c0,4.41-3.58,7.98-8,7.98h-.01c-4.4,0-7.99-3.57-7.99-7.98v-40.01h16Zm104.01,111.99h-224.01v-16h224.01v16Zm-224.01-31.99v-64.89c10.18,10.4,24.34,16.88,40,16.88h48v8.02c0,13.22,10.77,23.98,24,23.98s24-10.76,24-23.98v-8.02h48c15.67,0,29.83-6.49,40.01-16.89v64.9s-224.01,0-224.01,0Z"/></svg>