<?xml version="1.0" encoding="UTF-8"?><svg id="Icon_Set" xmlns="http://www.w3.org/2000/svg" viewBox="0 0 480 480"><defs><style>.cls-1{fill:#312733;}</style></defs><path class="cls-1" d="M464,204.94c4.92-5.63,8-12.9,8-20.94,0-17.65-14.36-32-32-32s-32,14.35-32,32c0,8.04,3.08,15.31,8,20.94v19.06h-16V40c0-22.05-17.95-40-40-40H40C17.95,0,0,17.95,0,40V440c0,22.05,17.95,40,40,40H360c22.05,0,40-17.95,40-40V240h16v128c0,4.42,3.58,8,8,8h32c4.42,0,8-3.58,8-8V240h16v-16h-16v-19.06Zm-80,235.06c0,13.23-10.77,24-24,24H40c-13.23,0-24-10.77-24-24V40c0-13.23,10.77-24,24-24H360c13.23,0,24,10.77,24,24V440Zm64-80h-16v-80h16v80Zm0-96h-16v-24h16v24Zm0-40h-16v-9.14c2.57,.67,5.22,1.14,8,1.14s5.43-.47,8-1.14v9.14Zm-8-24c-8.82,0-16-7.18-16-16s7.18-16,16-16,16,7.18,16,16-7.18,16-16,16Z"/><path class="cls-1" d="M290.32,189.68c1.52,1.52,3.52,2.32,5.68,2.32s4.16-.8,5.68-2.32c.72-.8,1.28-1.68,1.68-2.64,.4-.96,.64-2,.64-3.04s-.24-2.08-.64-3.04c-.4-1.04-.96-1.84-1.68-2.64-.4-.32-.8-.72-1.2-.96-.48-.32-.96-.56-1.44-.72-.48-.24-.96-.4-1.44-.48-1.6-.32-3.2-.16-4.64,.48-.96,.4-1.84,.96-2.64,1.68-.72,.8-1.28,1.6-1.68,2.64-.4,.96-.64,2-.64,3.04s.24,2.08,.64,3.04c.4,.96,.96,1.84,1.68,2.64Z"/><path class="cls-1" d="M196.96,191.44c.96,.4,2,.56,3.04,.56,2.16,0,4.16-.8,5.68-2.32,1.52-1.52,2.32-3.52,2.32-5.68,0-1.04-.24-2.08-.64-3.04-.4-1.04-.96-1.84-1.68-2.64-.8-.72-1.68-1.28-2.64-1.68-1.44-.64-3.04-.8-4.64-.48-.48,.09-.96,.24-1.44,.48-.48,.16-.96,.4-1.44,.72-.4,.24-.8,.64-1.2,.96-.72,.8-1.28,1.6-1.68,2.64-.4,.96-.64,2-.64,3.04,0,2.16,.8,4.16,2.32,5.68,.8,.72,1.68,1.28,2.64,1.76Z"/><path class="cls-1" d="M360,32H40c-4.42,0-8,3.58-8,8V440c0,4.42,3.58,8,8,8H360c4.42,0,8-3.58,8-8V40c0-4.42-3.58-8-8-8Zm-8,400H48v-64H352v64Zm-224-104v24h-48v-24h48Zm-48-16v-24h48v24h-48Zm64,40v-64h16v64h-16Zm80-24v24h-48v-24h48Zm-48-16v-24h48v24h-48Zm144,16v24h-48v-24h48Zm-48-16v-24h48v24h-48Zm80,40h-16v-72c0-4.42-3.58-8-8-8h-64c-4.42,0-8,3.58-8,8v72h-16v-72c0-4.42-3.58-8-8-8H72c-4.42,0-8,3.58-8,8v72h-16v-96H352v96Zm0-112H48v-16H352v16ZM128,144v24h-48v-24h48Zm-48-16v-24h48v24h-48Zm48,56v24h-48v-24h48Zm96-64v24h-48v-24h48Zm-48-16v-24h48v24h-48Zm48,56v48h-48v-48h48Zm32,0v48h-16v-48h16Zm-16-16V80h16v64h-16Zm80-24v24h-48v-24h48Zm-48-16v-24h48v24h-48Zm48,56v48h-48v-48h48Zm32,48h-16V72c0-4.42-3.58-8-8-8H168c-4.42,0-8,3.58-8,8V208h-16V96c0-4.42-3.58-8-8-8h-64c-4.42,0-8,3.58-8,8v112h-16V48H352V208Z"/><path class="cls-1" d="M174.49,422.48c.74,0,1.48-.04,2.23-.11l56.12-5.61c8.64-.87,15.16-8.07,15.16-16.76s-6.52-15.89-15.16-16.76l-56.12-5.61c-6.36-.62-12.63,1.45-17.32,5.7-4.7,4.25-7.39,10.33-7.39,16.66s2.7,12.41,7.39,16.66c4.14,3.76,9.55,5.81,15.1,5.81Zm-4.36-27.28c1.21-1.09,2.73-1.67,4.33-1.67,.22,0,.44,0,.66,.03l56.12,5.61c.43,.04,.76,.4,.76,.84s-.33,.8-.76,.84l-56.12,5.61c-1.85,.19-3.62-.4-5-1.64-1.37-1.24-2.13-2.95-2.13-4.8s.76-3.56,2.13-4.8Z"/></svg>