<?xml version="1.0" encoding="UTF-8"?><svg id="Icon_Set" xmlns="http://www.w3.org/2000/svg" viewBox="0 0 264.68 157.14"><defs><style>.cls-1{fill:#312733;}</style></defs><path class="cls-1" d="M130.03,145.74c0-5.24-3.56-9.63-8.44-10.88v-45.49c11.21-2.88,11.22-18.92,0-21.78V22.11c4.84-1.25,8.44-5.64,8.44-10.87,0-6.21-5.02-11.24-11.24-11.24H11.24C5.04,0,0,5.04,0,11.24c0,5.21,3.53,9.62,8.43,10.87v45.49c-11.19,2.89-11.21,18.87,0,21.77v45.5c-4.84,1.25-8.43,5.64-8.43,10.87,0,6.13,4.94,11.25,11.24,11.25H118.79c6.2,0,11.24-5.05,11.24-11.25ZM16.43,118.6H113.59v15.9H16.43v-15.9Zm0-96.12H113.59v15.9H16.43v-15.9Zm-5.19-14.48H118.79c4.29,0,4.28,6.48,0,6.48H11.24c-4.3,0-4.28-6.48,0-6.48Zm0,67.25h1.19c2.21,0,4-1.79,4-4v-24.87H113.59v24.87c0,2.21,1.79,4,4,4h1.2c4.29,0,4.28,6.48,0,6.48h-1.2c-2.21,0-4,1.79-4,4v24.87H16.43v-24.87c0-2.21-1.79-4-4-4h-1.19c-4.29,0-4.29-6.48,0-6.48Zm0,67.25H118.79c4.29,0,4.28,6.49,0,6.49H11.24c-4.22,0-4.34-6.49,0-6.49Z"/><path class="cls-1" d="M65.01,103.4c9.89,0,17.94-8.05,17.94-17.94,0-8.51-12.2-26.61-14.65-30.15-1.59-2.3-4.99-2.3-6.58,0-2.45,3.54-14.65,21.64-14.65,30.15,0,9.89,8.05,17.94,17.94,17.94Zm0-38.55c4.85,7.65,9.94,17.01,9.94,20.62,0,5.48-4.46,9.94-9.94,9.94s-9.94-4.46-9.94-9.94c0-3.6,5.08-12.96,9.94-20.62Z"/><g><path class="cls-1" d="M264.61,152.43l-8.7-48.39c-.34-1.91-2-3.29-3.94-3.29h-28l-8.44-46.94c-.34-1.91-2-3.29-3.94-3.29h-53c-1.94,0-3.59,1.39-3.94,3.29l-8.44,46.94h-28c-1.94,0-3.59,1.39-3.94,3.29l-8.7,48.39c-.44,2.45,1.44,4.71,3.94,4.71h70.4c2.49,0,4.38-2.25,3.94-4.71l-8.19-45.53h18.86l-8.19,45.53c-.44,2.45,1.44,4.71,3.94,4.71h70.4c2.49,0,4.38-2.25,3.94-4.71ZM161.94,58.51h46.31l7.26,40.39h-60.84l7.26-40.39Zm-47.65,90.63l7.26-40.39h46.31l7.26,40.39h-60.84Zm80.76,0l7.26-40.39h46.31l7.26,40.39h-60.84Z"/><path class="cls-1" d="M242.7,134.37h-18c-2.21,0-4,1.79-4,4s1.79,4,4,4h18c2.21,0,4-1.79,4-4s-1.79-4-4-4Z"/><path class="cls-1" d="M209.7,134.37h-1.44c-2.21,0-4,1.79-4,4s1.79,4,4,4h1.44c2.21,0,4-1.79,4-4s-1.79-4-4-4Z"/></g></svg>