<?xml version="1.0" encoding="UTF-8"?><svg id="Saving" xmlns="http://www.w3.org/2000/svg" viewBox="0 0 138.29 107.21"><defs><style>.cls-1{fill:#312733;}.cls-2{fill:none;stroke:#352d35;stroke-miterlimit:10;stroke-width:8px;}</style></defs><g><path class="cls-1" d="M98.31,0c-7.68,0-13.93,6.25-13.93,13.93s6.25,13.93,13.93,13.93,13.93-6.25,13.93-13.93h0c0-7.68-6.25-13.93-13.93-13.93Zm11.7,13.93c0,6.45-5.25,11.69-11.7,11.69s-11.69-5.25-11.69-11.7,5.25-11.69,11.7-11.69,11.69,5.25,11.69,11.69h0Z"/><polygon class="cls-1" points="102.99 5.77 98.31 10.45 93.63 5.77 90.15 9.24 94.84 13.93 90.15 18.61 93.63 22.08 98.31 17.4 102.99 22.08 106.47 18.61 101.78 13.93 106.47 9.24 102.99 5.77"/></g><path class="cls-1" d="M118.47,46.02L64.49,15.17c-1.19-.68-2.64-.68-3.83,0L6.67,46.02c-1.2,.69-1.94,1.97-1.94,3.35s.74,2.66,1.94,3.35l5.77,3.3v28.06h7.71v-23.65l7.71,4.41v23.1c0,1.02,.41,2,1.13,2.73l4.52,4.52c7.76,7.76,18.08,12.04,29.06,12.04s21.3-4.27,29.06-12.04l4.52-4.52c.72-.72,1.13-1.7,1.13-2.73v-23.1l21.19-12.11c1.2-.69,1.94-1.97,1.94-3.35s-.74-2.66-1.94-3.35Zm-28.91,40.31l-3.39,3.39c-6.31,6.3-14.69,9.78-23.61,9.78s-17.3-3.47-23.61-9.78l-3.39-3.39v-17.1l25.08,14.33c.59,.34,1.25,.51,1.91,.51s1.32-.17,1.91-.51l25.08-14.33v17.1Zm-26.99-10.56L16.36,49.36,62.57,22.95l46.22,26.41-46.22,26.41Z"/><line class="cls-2" x1="136.15" y1="16.76" x2="2.14" y2="101.37"/></svg>
