<?xml version="1.0" encoding="UTF-8"?><svg id="Saving" xmlns="http://www.w3.org/2000/svg" viewBox="0 0 64 64"><defs><style>.cls-1{fill:#312733;}</style></defs><g><path class="cls-1" d="M43,15c0-6.07-4.93-11-11-11s-11,4.93-11,11,4.93,11,11,11,11-4.93,11-11Zm-20,0c0-4.96,4.04-9,9-9s9,4.04,9,9-4.04,9-9,9-9-4.04-9-9Z"/><path class="cls-1" d="M63,62h-2.92c-4.69-.65-5.02-2.3-5.52-4.78-.47-2.38-1.06-5.35-5.43-7.77-7.82-4.35-12.41-.62-13.6,.6-.77-.7-1.58-1.4-2.53-2.02v-4.16c0-2.98,1.9-5.59,4.66-6.57,.87,.97,2.89,2.71,6.17,2.71,.54,0,1.1-.05,1.71-.15,5.57-.96,8.31-10.18,8.42-10.57,.12-.42-.04-.87-.41-1.11-.36-.24-.84-.22-1.18,.06-1.58,1.28-1.84,1.27-5.04,1.18-.76-.02-1.67-.05-2.77-.06-.03,0-.07,0-.1,0-4.79,0-6.8,3.6-7.33,5.99-1.66,.56-3.07,1.57-4.13,2.88v-8.27c7.8-.52,14-7.02,14-14.95S40.27,0,32,0s-15,6.73-15,15,6.2,14.43,14,14.95v11.27c-1.05-1.31-2.47-2.32-4.13-2.88-.53-2.39-2.54-5.99-7.33-5.99-.03,0-.07,0-.1,0-1.1,.01-2.01,.04-2.77,.06-3.2,.09-3.46,.1-5.04-1.18-.34-.28-.82-.3-1.18-.06-.36,.24-.53,.69-.41,1.11,.11,.39,2.85,9.62,8.42,10.57,.6,.1,1.17,.15,1.71,.15,3.28,0,5.3-1.74,6.17-2.71,2.77,.98,4.66,3.59,4.66,6.57v.08c-1.42-.61-3.14-1.04-5.37-1.18-4.34-.27-7.7,.71-9.99,2.9-2.21,2.11-2.8,4.76-2.96,6.13-6.67,.96-8.82,5.35-9.44,7.21H1c-.55,0-1,.45-1,1s.45,1,1,1H63c.55,0,1-.45,1-1s-.45-1-1-1Zm-18.54-30.65s.05,0,.08,0c1.09,.01,1.98,.04,2.73,.06,1.8,.05,2.88,.08,3.85-.18-1.19,2.74-3.27,6.2-5.92,6.66-2.56,.44-4.3-.43-5.31-1.23l3.82-1c.53-.14,.85-.69,.71-1.22s-.69-.85-1.22-.71l-3.78,.99c.59-1.44,1.95-3.36,5.04-3.36Zm-25.66,9.53c-2.65-.45-4.73-3.92-5.92-6.66,.96,.26,2.04,.23,3.84,.18,.75-.02,1.65-.05,2.73-.06,3.15-.05,4.52,1.91,5.11,3.36l-3.78-.99c-.54-.14-1.08,.18-1.22,.71-.14,.53,.18,1.08,.71,1.22l3.82,1c-1.01,.8-2.75,1.67-5.31,1.23Zm.2-25.88c0-7.17,5.83-13,13-13s13,5.83,13,13-5.83,13-13,13-13-5.83-13-13Zm.32,41.92c.54,.09,1.06-.29,1.14-.83,.09-.55-.29-1.06-.83-1.14-1.83-.29-3.45-.39-4.9-.34,.19-1.16,.74-3.04,2.31-4.52,1.88-1.78,4.72-2.56,8.47-2.33,4.91,.3,6.86,2.1,9.13,4.18,1.68,1.55,3.59,3.3,6.88,4.44,.52,.18,1.09-.09,1.27-.62,.18-.52-.09-1.09-.62-1.27-2.3-.8-3.82-1.93-5.16-3.11,.87-.89,4.5-3.89,11.16-.19,3.56,1.98,4.01,4.24,4.44,6.42,.31,1.56,.63,3.16,2.02,4.39H5.35c.92-2.21,4.04-6.64,13.97-5.08Z"/><path class="cls-1" d="M51.71,11.71l4.29-4.29V29c0,.55,.45,1,1,1s1-.45,1-1V7.41l4.29,4.29c.2,.2,.45,.29,.71,.29s.51-.1,.71-.29c.39-.39,.39-1.02,0-1.41l-6-6c-.09-.09-.2-.17-.33-.22-.24-.1-.52-.1-.76,0-.12,.05-.23,.12-.33,.22l-6,6c-.39,.39-.39,1.02,0,1.41s1.02,.39,1.41,0Z"/><path class="cls-1" d="M57,32c-.55,0-1,.45-1,1v2c0,.55,.45,1,1,1s1-.45,1-1v-2c0-.55-.45-1-1-1Z"/><path class="cls-1" d="M1.71,20.71l4.29-4.29v21.59c0,.55,.45,1,1,1s1-.45,1-1V16.41l4.29,4.29c.2,.2,.45,.29,.71,.29s.51-.1,.71-.29c.39-.39,.39-1.02,0-1.41l-6-6c-.09-.09-.2-.17-.33-.22-.24-.1-.52-.1-.76,0-.12,.05-.23,.12-.33,.22L.29,19.29c-.39,.39-.39,1.02,0,1.41s1.02,.39,1.41,0Z"/><path class="cls-1" d="M7,41c-.55,0-1,.45-1,1v2c0,.55,.45,1,1,1s1-.45,1-1v-2c0-.55-.45-1-1-1Z"/></g><g><path class="cls-1" d="M28.17,17.34c-.16,.26-.39,.47-.69,.63-.31,.16-.68,.24-1.12,.24s-.82-.07-1.16-.22c-.34-.15-.61-.36-.82-.64-.21-.28-.32-.6-.35-.97h1.3c.03,.25,.13,.45,.3,.62,.17,.16,.4,.25,.68,.25,.25,0,.45-.07,.59-.2,.14-.14,.2-.31,.2-.52,0-.19-.06-.35-.16-.47-.11-.12-.25-.22-.42-.3-.17-.07-.4-.16-.69-.26-.38-.13-.69-.25-.94-.38-.24-.12-.45-.31-.62-.54-.17-.24-.26-.55-.26-.93,0-.53,.19-.94,.57-1.24,.38-.3,.88-.45,1.5-.45s1.16,.16,1.55,.47c.38,.31,.6,.73,.65,1.25h-1.32c-.03-.22-.13-.4-.28-.54-.15-.14-.36-.21-.62-.21-.23,0-.41,.06-.55,.18-.14,.12-.21,.29-.21,.52,0,.18,.05,.33,.16,.45,.11,.12,.24,.22,.41,.29,.16,.08,.39,.16,.67,.25,.39,.14,.71,.27,.96,.39,.25,.12,.45,.3,.63,.55s.26,.56,.26,.95c0,.31-.08,.6-.23,.86Z"/><path class="cls-1" d="M33.03,16.92h-2.45l-.43,1.23h-1.29l2.25-6.05h1.4l2.25,6.05h-1.29l-.42-1.23Zm-.33-.93l-.9-2.58-.9,2.58h1.8Z"/><path class="cls-1" d="M38.6,18.15l-1.43-2.38h-.54v2.38h-1.22v-6.12h2.33c.71,0,1.25,.17,1.63,.52s.56,.8,.56,1.37c0,.46-.13,.85-.39,1.16-.26,.31-.63,.52-1.11,.62l1.53,2.44h-1.35Zm-1.97-3.22h1.01c.7,0,1.05-.31,1.05-.93,0-.3-.09-.52-.26-.69-.17-.17-.44-.25-.79-.25h-1.01v1.86Z"/></g></svg>