<?xml version="1.0" encoding="UTF-8"?><svg id="Saving" xmlns="http://www.w3.org/2000/svg" viewBox="0 0 238.17 238.17"><defs><style>.cls-1{fill:#312733;}</style></defs><path class="cls-1" d="M185.81,238.17H4.46c-1.24,0-2.43-.52-3.28-1.43-.85-.91-1.27-2.14-1.17-3.38L13.45,65.63c.19-2.32,2.12-4.1,4.45-4.1H172.37c2.32,0,4.26,1.79,4.45,4.1l13.44,167.72c.1,1.24-.32,2.47-1.17,3.38-.84,.91-2.03,1.43-3.28,1.43ZM9.29,229.25H180.98l-12.72-158.8H22.02L9.29,229.25Z"/><path class="cls-1" d="M135.1,94.74c-2.46,0-4.46-2-4.46-4.46V44.42c0-19.58-15.93-35.5-35.5-35.5s-35.5,15.92-35.5,35.5v45.86c0,2.46-2,4.46-4.46,4.46s-4.46-2-4.46-4.46V44.42C50.71,19.93,70.64,0,95.14,0s44.42,19.93,44.42,44.42v45.86c0,2.46-2,4.46-4.46,4.46Z"/><g><path class="cls-1" d="M124.44,196.03c-.1,0-.19,0-.29,0-2.46-.16-4.32-2.28-4.16-4.74l.12-1.86c.16-2.46,2.28-4.3,4.74-4.16,2.46,.16,4.32,2.28,4.16,4.74l-.12,1.86c-.15,2.36-2.12,4.17-4.45,4.17Z"/><path class="cls-1" d="M233.71,238.17H121.69c-1.23,0-2.41-.51-3.26-1.41s-1.28-2.11-1.2-3.34l1.66-25.49c.16-2.46,2.29-4.32,4.74-4.16,2.46,.16,4.32,2.28,4.16,4.74l-1.35,20.74h102.5l-7.72-118.38h-87.07l-4.03,61.72c-.16,2.46-2.28,4.31-4.74,4.16-2.46-.16-4.32-2.28-4.16-4.74l4.3-65.89c.15-2.35,2.1-4.17,4.45-4.17h95.42c2.35,0,4.3,1.82,4.45,4.17l8.3,127.3c.08,1.23-.35,2.44-1.2,3.34s-2.02,1.41-3.26,1.41Z"/><path class="cls-1" d="M177.7,176.77c-16.07,0-29.15-13.08-29.15-29.15v-28.33c0-2.46,2-4.46,4.46-4.46s4.46,2,4.46,4.46v28.33c0,11.15,9.07,20.23,20.22,20.23s20.22-9.07,20.22-20.23v-28.33c0-2.46,2-4.46,4.46-4.46s4.46,2,4.46,4.46v28.33c0,16.07-13.08,29.15-29.15,29.15Z"/></g></svg>
