<?xml version="1.0" encoding="UTF-8"?><svg id="Saving" xmlns="http://www.w3.org/2000/svg" viewBox="0 0 47.86 64"><defs><style>.cls-1{fill:#312733;}</style></defs><g><path class="cls-1" d="M45.97,0H1.89C.85,0,0,.85,0,1.88V62.12c0,1.04,.85,1.88,1.89,1.88H45.97c1.04,0,1.88-.85,1.88-1.88V1.88c0-1.04-.84-1.88-1.88-1.88Zm-.12,62H2V2H45.86V62Z"/><path class="cls-1" d="M8.09,26.01h31.67c.55,0,1-.45,1-1s-.45-1-1-1H8.09c-.55,0-1,.45-1,1s.45,1,1,1Z"/><path class="cls-1" d="M8.09,31.21h31.67c.55,0,1-.45,1-1s-.45-1-1-1H8.09c-.55,0-1,.45-1,1s.45,1,1,1Z"/><path class="cls-1" d="M8.09,36.41h12.26c.55,0,1-.45,1-1s-.45-1-1-1H8.09c-.55,0-1,.45-1,1s.45,1,1,1Z"/><path class="cls-1" d="M8.09,41.61h3.97c.55,0,1-.45,1-1s-.45-1-1-1h-3.97c-.55,0-1,.45-1,1s.45,1,1,1Z"/><path class="cls-1" d="M19.17,53.04l-1-1.54,.56-.36c.68-.44,1.15-1.12,1.32-1.92,.17-.79,.02-1.6-.42-2.28-.44-.68-1.12-1.15-1.92-1.32-.8-.17-1.61-.02-2.29,.42l-1.4,.91s0,0,0,0c0,0,0,0,0,0-.02,.01-.03,.03-.04,.04-.09,.07-.17,.14-.24,.23-.15,.22-.21,.49-.16,.74,.02,.13,.07,.25,.14,.36l3.77,5.8c.19,.29,.51,.46,.84,.46,.19,0,.38-.05,.54-.16,.46-.3,.59-.92,.29-1.38Zm-1.88-5.46c.27,.06,.51,.22,.66,.45,.15,.23,.2,.5,.14,.77-.06,.27-.22,.51-.45,.66l-.56,.36-1.13-1.74,.56-.36c.23-.15,.51-.2,.79-.14Z"/><path class="cls-1" d="M20.82,43.29s1.71,7.18,1.71,7.18c.11,.46,.52,.77,.97,.77,.08,0,.16,0,.23-.03,.54-.13,.87-.67,.74-1.21l-.14-.6,2.2-1.42,.49,.38c.18,.14,.39,.21,.61,.21,.3,0,.6-.14,.79-.39,.34-.44,.25-1.07-.19-1.4l-5.83-4.46c-.71-.55-1.74,.11-1.58,.98Zm3.02,4.05l-.41-1.73,1.42,1.08-1,.65Z"/><path class="cls-1" d="M26.83,38.66c-.46,.3-.59,.92-.29,1.38l3.77,5.8c.19,.29,.51,.46,.84,.46,.19,0,.38-.05,.54-.16,.46-.3,.59-.92,.29-1.38l-3.77-5.8c-.3-.46-.92-.6-1.38-.29Z"/><path class="cls-1" d="M34.84,43.91c.19,0,.37-.05,.54-.16l.96-.62c1-.65,1.7-1.65,1.95-2.83,.25-1.17,.03-2.35-.61-3.35-1.34-2.06-4.11-2.64-6.19-1.3l-.96,.62c-.22,.14-.38,.37-.43,.63-.05,.26,0,.53,.14,.75l3.77,5.8c.19,.29,.51,.46,.84,.46Zm-2.27-6.58c1.15-.74,2.69-.42,3.43,.72,.35,.54,.47,1.2,.33,1.84-.14,.65-.52,1.21-1.08,1.56l-.12,.08-2.68-4.12,.12-.08Z"/><path class="cls-1" d="M39.6,43.38l-20.39,13.18c-.46,.3-.6,.92-.3,1.38,.19,.3,.51,.46,.84,.46,.19,0,.37-.05,.54-.16l20.39-13.18c.46-.3,.6-.92,.3-1.38-.3-.46-.92-.6-1.38-.3Z"/></g><g><path class="cls-1" d="M19.58,16.97c-.18,.3-.44,.54-.79,.72-.35,.18-.77,.27-1.27,.27s-.94-.08-1.32-.25c-.39-.17-.7-.41-.93-.73-.23-.32-.37-.69-.4-1.11h1.48c.03,.28,.15,.52,.34,.71,.19,.19,.45,.28,.78,.28,.29,0,.51-.08,.67-.23,.16-.15,.23-.35,.23-.6,0-.22-.06-.4-.19-.54-.13-.14-.28-.26-.47-.34-.19-.08-.46-.18-.79-.3-.43-.14-.79-.29-1.07-.43-.28-.14-.51-.35-.71-.62-.19-.27-.29-.62-.29-1.06,0-.6,.22-1.07,.65-1.42,.43-.35,1-.52,1.71-.52s1.33,.18,1.76,.53c.44,.36,.69,.83,.75,1.42h-1.5c-.04-.25-.15-.46-.32-.62-.17-.16-.41-.24-.7-.24-.26,0-.46,.07-.62,.2-.16,.13-.24,.33-.24,.59,0,.2,.06,.37,.18,.51,.12,.13,.28,.25,.46,.33,.19,.09,.44,.18,.77,.29,.45,.16,.81,.31,1.09,.45,.28,.14,.52,.35,.72,.62s.3,.64,.3,1.09c0,.36-.09,.68-.27,.98Z"/><path class="cls-1" d="M25.13,16.49h-2.8l-.49,1.4h-1.47l2.57-6.9h1.59l2.56,6.9h-1.47l-.48-1.4Zm-.38-1.06l-1.03-2.94-1.03,2.94h2.06Z"/><path class="cls-1" d="M31.47,17.89l-1.63-2.72h-.61v2.72h-1.39v-6.98h2.66c.81,0,1.43,.2,1.85,.59s.64,.92,.64,1.56c0,.53-.15,.97-.44,1.32-.29,.36-.72,.59-1.27,.71l1.74,2.79h-1.54Zm-2.24-3.68h1.15c.8,0,1.2-.35,1.2-1.06,0-.34-.1-.6-.29-.79-.19-.19-.5-.28-.9-.28h-1.15v2.12Z"/></g></svg>
