<?xml version="1.0" encoding="UTF-8"?><svg id="Saving" xmlns="http://www.w3.org/2000/svg" viewBox="0 0 141.72 141.9"><path d="M135.58,129.43c-4.68,0-9.04-2.52-11.38-6.57l-5.21-9.02c-.8-1.39-1.9-2.54-3.19-3.41,1.54-1.51,2.51-3.61,2.51-5.94,0-3.92-2.73-7.21-6.39-8.09l-3.31-38.61c2.34-.9,4.01-3.17,4.01-5.82,0-2.3-1.26-4.32-3.12-5.4l7.75-13.42c1.64-2.84,2.51-6.08,2.51-9.35V2.08c0-1.15-.93-2.08-2.08-2.08h-16.63c-1.15,0-2.08,.93-2.08,2.08v7.16h-4.16V2.08c0-1.15-.93-2.08-2.08-2.08h-24.94c-1.15,0-2.08,.93-2.08,2.08v7.16h-4.16V2.08c0-1.15-.93-2.08-2.08-2.08h-16.63c-1.15,0-2.08,.93-2.08,2.08V23.79c0,3.28,.87,6.51,2.51,9.35l7.75,13.42c-1.86,1.08-3.12,3.1-3.12,5.4,0,2.65,1.67,4.92,4.01,5.82l-1.65,19.31-7.23-12.52c-1.85-3.21-5.3-5.2-9-5.2s-7.15,1.99-9,5.2L1.39,105.53c-.91,1.57-1.39,3.37-1.39,5.19,0,5.73,4.66,10.39,10.39,10.39h26.95l-1.01,1.75c-2.34,4.05-6.7,6.57-11.38,6.57-3.4,.05-6.14,2.83-6.14,6.24s2.8,6.24,6.24,6.24h110.44c3.44,0,6.24-2.8,6.24-6.24s-2.75-6.18-6.14-6.23h0Zm-21.43-24.95c0,2.29-1.86,4.16-4.16,4.16h-42.14c-.22-1.09-.62-2.14-1.18-3.11l-3-5.2h46.32c2.29,0,4.16,1.86,4.16,4.16h0ZM57.4,4.16v7.16c0,1.15,.93,2.08,2.08,2.08h8.31c1.15,0,2.08-.93,2.08-2.08V4.16h20.79v7.16c0,1.15,.93,2.08,2.08,2.08h8.31c1.15,0,2.08-.93,2.08-2.08V4.16h12.47V21.71H44.93V4.16h12.47Zm-10.52,26.91c-.93-1.6-1.53-3.37-1.8-5.2H115.45c-.26,1.82-.87,3.59-1.8,5.2l-8.47,14.66H62.46c-1.15,0-2.08,.93-2.08,2.08s.93,2.08,2.08,2.08h43.95c1.13,.01,2.05,.94,2.05,2.08s-.93,2.08-2.08,2.08H54.15c-1.15,0-2.08-.93-2.08-2.08s.93-2.08,2.08-2.08c.74,0,1.43-.4,1.8-1.04,.37-.64,.37-1.44,0-2.08l-9.07-15.7Zm9.17,27.13h48.43l3.25,37.97H61.28l-7.38-12.78,2.16-25.19ZM4.16,110.72c0-1.09,.29-2.17,.83-3.11l23.64-40.95c1.11-1.93,3.18-3.12,5.4-3.12s4.29,1.2,5.4,3.12l23.64,40.95c.55,.94,.83,2.02,.83,3.11,0,3.44-2.8,6.24-6.24,6.24H10.39c-3.44,0-6.24-2.8-6.24-6.24h0Zm35.77,14.22l2.21-3.82h15.54c5.02,0,9.22-3.58,10.18-8.31h42.13c2.22,0,4.29,1.2,5.4,3.12l5.21,9.02c.99,1.72,2.27,3.23,3.74,4.49H36.19c1.47-1.26,2.75-2.77,3.74-4.49h0Zm95.56,12.8H25.05c-1.15,0-2.08-.93-2.08-2.08s.93-2.08,2.08-2.08h110.44c1.15,0,2.08,.93,2.08,2.08s-.93,2.08-2.08,2.08h0Zm0,0"/><path d="M34.04,71.85c-3.44,0-6.24,2.8-6.24,6.24v11.84c0,3.44,2.8,6.24,6.24,6.24s6.24-2.8,6.24-6.24v-11.84c0-3.44-2.8-6.24-6.24-6.24h0Zm2.08,18.08c0,1.15-.93,2.08-2.08,2.08s-2.08-.93-2.08-2.08v-11.84c0-1.15,.93-2.08,2.08-2.08s2.08,.93,2.08,2.08v11.84Zm0,0"/><path d="M34.04,100.33c-3.44,0-6.24,2.8-6.24,6.24s2.8,6.24,6.24,6.24,6.24-2.8,6.24-6.24-2.8-6.24-6.24-6.24h0Zm0,8.31c-1.15,0-2.08-.93-2.08-2.08s.93-2.08,2.08-2.08,2.08,.93,2.08,2.08-.93,2.08-2.08,2.08h0Zm0,0"/></svg>