<?xml version="1.0" encoding="UTF-8"?><svg id="Icon_Set" xmlns="http://www.w3.org/2000/svg" viewBox="0 0 788.05 797.88"><defs><style>.cls-1{fill:#312733;}</style></defs><path class="cls-1" d="M709.54,302.08h-187.21c-5.31,0-9.61-4.3-9.61-9.61s4.3-9.61,9.61-9.61h187.21c12.57,.2,12.68,19,0,19.22Z"/><path class="cls-1" d="M709.54,368.54h-227.46c-12.56-.19-12.69-19,0-19.22,0,0,227.46,0,227.46,0,12.56,.19,12.69,19,0,19.22Z"/><path class="cls-1" d="M709.54,435h-227.46c-12.56-.19-12.69-19,0-19.22,0,0,227.46,0,227.46,0,12.56,.19,12.69,19,0,19.22Z"/><path class="cls-1" d="M669.29,501.46h-12.17c-5.31,0-9.61-4.3-9.61-9.61s4.3-9.61,9.61-9.61h12.17c12.63,.21,12.63,19.01,0,19.22Z"/><path class="cls-1" d="M595.82,501.46h-113.73c-12.6-.2-12.66-19,0-19.22,0,0,113.73,0,113.73,0,12.6,.2,12.66,19,0,19.22Z"/><path class="cls-1" d="M156.97,282.86v19.22h-48.94c-12.59-.2-12.67-19,0-19.22h48.94Z"/><path class="cls-1" d="M156.97,349.32v19.22h-48.94c-12.59-.2-12.67-19.01,0-19.22h48.94Z"/><path class="cls-1" d="M156.97,415.77v19.22h-48.94c-12.59-.2-12.67-19,0-19.22h48.94Z"/><path class="cls-1" d="M269.45,501.45H108.03c-12.56-.19-12.69-19,0-19.22h127.24c12.31,5.97,23.69,12.46,34.18,19.22Z"/><path class="cls-1" d="M337.85,664.24H9.61v19.22H337.85c12.6-.2,12.66-19,0-19.22Z"/><path class="cls-1" d="M778.44,664.24h-225.88c-3.67,0-6.64,4.3-6.64,9.61s2.97,9.61,6.64,9.61h225.88v-19.22Z"/><path class="cls-1" d="M778.44,728.87h-182.63c-5.31,0-9.61-4.3-9.61-9.61s4.3-9.61,9.61-9.61h173.02v-81.21c.21-12.61,19-12.65,19.22,0,0,0,0,90.82,0,90.82,0,5.31-4.3,9.61-9.61,9.61Z"/><path class="cls-1" d="M451.64,728.87H9.61c-5.31,0-9.61-4.3-9.61-9.61v-90.82c0-5.31,4.3-9.61,9.61-9.61s9.61,4.3,9.61,9.61v81.21H451.64c12.59,.2,12.67,19,0,19.22Z"/><path class="cls-1" d="M394.03,669.17c-5.24,.02-9.67-4.34-9.62-9.61,0,0,0-470.88,0-470.88,5.82-32.14,37.73-42.1,51.73-40.7,0,0,342.3,0,342.3,0,5.31,0,9.61,4.3,9.61,9.61v470.86c0,5.31-4.3,9.61-9.61,9.61-1.2-.02-342.01,.01-343.11,0-2.51-.11-25.26-.4-32.05,24.07-1.17,4.21-4.99,7.04-9.25,7.04Zm9.6-479.11v438.8c11.04-8.05,23.84-10.32,32.08-10.02,.03,0,333.03,0,333.11,0V167.19c-.5-.01-332.98,.02-333.44-.01-2.55-.12-24.58-.38-31.75,22.87Z"/><path class="cls-1" d="M394.02,669.17c-4.21,0-8.08-2.79-9.26-7.05-6.78-24.47-29.53-24.17-32.11-24.06-.25,.84-342.54-.62-343.05,0-5.31,0-9.61-4.3-9.61-9.61V157.58c0-5.31,4.3-9.61,9.61-9.61H115.74c5.31,0,9.61,4.3,9.61,9.61s-4.3,9.61-9.61,9.61H19.22v451.64c.06,0,333.04,0,333.11,0,14.17-.53,42.23,6.69,50.95,38.16,1.76,6-3.03,12.26-9.27,12.18Z"/><path class="cls-1" d="M551.5,797.81c-1.49,1.48-47.69-21.33-49.93-21.81l-45.94,20.94c-2.97,1.36-6.43,1.11-9.19-.66-2.75-1.77-4.41-4.81-4.41-8.08v-114.35c0-5.31,4.3-9.61,9.61-9.61h99.86c5.31,0,9.61,4.3,9.61,9.61v114.35c.11,5.16-4.47,9.72-9.61,9.61Zm-49.93-41.98c.03-1.78,38.99,17.11,40.32,17.43v-89.79h-80.64v89.79c1.45-.36,40.16-19.16,40.32-17.43Z"/><path class="cls-1" d="M402.88,623.34c2.75,6.14-2.16,13.47-8.85,13.34-3.75,0-7.32-2.21-8.86-5.88-.32-.74-15.11-34.86-49.47-72.99-15.91-17.65-37.78-38.02-66.25-56.36-10.49-6.76-21.87-13.25-34.18-19.22-20.9-10.14-44.46-18.8-70.84-24.83-4.37-1-7.46-4.89-7.46-9.37V9.63c-.14-5.96,5.93-10.86,11.75-9.36,117.56,23.98,204.67,117.82,234.16,184.68,4.67,11.77-12.6,18.99-17.71,7.46-24.96-58.48-106.39-146.19-208.98-170.5V440.45c38.72,9.72,71.52,24.8,98.84,41.78,10,6.21,19.26,12.67,27.81,19.22,19.49,14.93,35.3,30.29,47.68,44.1,36.5,40.68,51.73,76.29,52.36,77.79Z"/></svg>