<?xml version="1.0" encoding="UTF-8"?><svg id="OBJECTS" xmlns="http://www.w3.org/2000/svg" viewBox="0 0 34.63 34.63"><defs><style>.cls-1{fill:#f3d961;}.cls-2{fill:#24356e;}</style></defs><g><circle class="cls-1" cx="17.32" cy="17.32" r="16.54"/><path class="cls-2" d="M17.32,34.63C7.77,34.63,0,26.87,0,17.32S7.77,0,17.32,0s17.32,7.77,17.32,17.32-7.77,17.32-17.32,17.32ZM17.32,1.54C8.62,1.54,1.54,8.62,1.54,17.32s7.08,15.77,15.77,15.77,15.77-7.08,15.77-15.77S26.01,1.54,17.32,1.54Z"/></g><path class="cls-2" d="M26.3,22.46c-1.52,3.03-4.97,5.16-8.98,5.16s-7.46-2.13-8.98-5.16h-1.6c1.58,3.85,5.72,6.62,10.58,6.62s9-2.76,10.58-6.62h-1.6Z"/><g><ellipse class="cls-2" cx="12.26" cy="14.24" rx="2.94" ry="4.06"/><ellipse class="cls-2" cx="22.38" cy="14.24" rx="2.94" ry="4.06"/></g></svg>