<?xml version="1.0" encoding="UTF-8"?><svg id="Icon_Set" xmlns="http://www.w3.org/2000/svg" viewBox="0 0 247.45 249.22"><defs><style>.cls-1{fill:#312733;}</style></defs><path class="cls-1" d="M243.45,241.22H8V5.48c0-2.21-1.79-4-4-4S0,3.28,0,5.48V245.22c0,2.21,1.79,4,4,4H243.45c2.21,0,4-1.79,4-4s-1.79-4-4-4Z"/><path class="cls-1" d="M24.33,221.69h5.63v9.07c0,2.21,1.79,4,4,4s4-1.79,4-4v-9.07h5.64c2.21,0,4-1.79,4-4v-76.01c0-2.21-1.79-4-4-4h-5.64v-7.8c0-2.21-1.79-4-4-4s-4,1.79-4,4v7.8h-5.63c-2.21,0-4,1.79-4,4v76.01c0,2.21,1.79,4,4,4Zm4-76.01h11.27v68.01h-11.27v-68.01Z"/><path class="cls-1" d="M73.19,172.91c2.21,0,4-1.79,4-4v-3.81h5.63c2.21,0,4-1.79,4-4v-50.31c0-2.21-1.79-4-4-4h-5.63v-3.81c0-2.21-1.79-4-4-4s-4,1.79-4,4v3.81h-5.64c-2.21,0-4,1.79-4,4v50.31c0,2.21,1.79,4,4,4h5.64v3.81c0,2.21,1.79,4,4,4Zm-5.64-58.12h11.27v42.31h-11.27v-42.31Z"/><path class="cls-1" d="M189.03,194.44c2.21,0,4-1.79,4-4v-7.81h5.64c2.21,0,4-1.79,4-4v-30.31c0-2.21-1.79-4-4-4h-5.64v-23.06c0-2.21-1.79-4-4-4s-4,1.79-4,4v23.06h-5.64c-2.21,0-4,1.79-4,4v30.31c0,2.21,1.79,4,4,4h5.64v7.81c0,2.21,1.79,4,4,4Zm-5.64-42.12h11.27v22.31h-11.27v-22.31Z"/><path class="cls-1" d="M114.34,190.21c2.21,0,4-1.79,4-4v-7.8h5.64c2.21,0,4-1.79,4-4v-18.77c0-2.21-1.79-4-4-4h-5.64v-7.8c0-2.21-1.79-4-4-4s-4,1.79-4,4v7.8h-5.63c-2.21,0-4,1.79-4,4v18.77c0,2.21,1.79,4,4,4h5.63v7.8c0,2.21,1.79,4,4,4Zm-5.63-30.56h11.27v10.77c-.82,0,2.42,0-11.27,0v-10.77Z"/><path class="cls-1" d="M154.05,234.76c2.21,0,4-1.79,4-4v-25.31h5.64c2.21,0,4-1.79,4-4v-24.93c0-2.21-1.79-4-4-4h-5.64v-6.73c0-2.21-1.79-4-4-4s-4,1.79-4,4v6.73h-5.63c-2.21,0-4,1.79-4,4v24.93c0,2.21,1.79,4,4,4h5.63v25.31c0,2.21,1.79,4,4,4Zm-5.63-54.25h11.27v16.93h-11.27v-16.93Z"/><path class="cls-1" d="M224.01,148.62c2.21,0,4-1.79,4-4v-3.81h5.63c2.21,0,4-1.79,4-4v-40.31c0-2.21-1.79-4-4-4h-5.63V59.44c0-2.21-1.79-4-4-4s-4,1.79-4,4v33.06h-5.64c-2.21,0-4,1.79-4,4v40.31c0,2.21,1.79,4,4,4h5.64v3.81c0,2.21,1.79,4,4,4Zm-5.64-48.12h11.27v32.31h-11.27v-32.31Z"/><path class="cls-1" d="M33.97,85.92c10.04,0,16.38-10.79,11.64-19.53l21.45-22.2c2.73,1.43,5.89,1.91,9.11,1.16l28.43,49.61c-7.74,8.42-1.83,22.17,9.73,22.17,3.02,0,5.8-1.03,8.03-2.74l19.05,13.32c-2.67,8.53,3.74,17.19,12.63,17.19,7.3,0,13.24-5.94,13.24-13.24,0-4.13-1.9-7.81-4.87-10.24l25.67-64.68c9.99,.7,16.98-9.44,13.08-18.43l15.93-13.81c8.78,5.39,20.13-.96,20.13-11.28,0-7.3-5.94-13.24-13.24-13.24-9.53,0-15.91,9.79-12.15,18.48l-15.93,13.81c-8.78-5.39-20.13,.95-20.13,11.28,0,4.12,1.9,7.81,4.87,10.24l-25.67,64.68c-3.41-.24-6.49,.8-8.96,2.69l-19.04-13.32c3.02-9.62-5.49-19.04-15.44-16.88l-28.49-49.7c7.55-8.46,1.61-22.03-9.87-22.03-9.92,0-16.27,10.54-11.76,19.28l-21.57,22.33c-8.81-4.39-19.12,2.08-19.12,11.84,0,7.3,5.94,13.24,13.24,13.24ZM224,8c2.89,0,5.24,2.35,5.24,5.24s-2.35,5.24-5.24,5.24-5.24-2.35-5.24-5.24,2.35-5.24,5.24-5.24Zm-34.98,30.33c2.89,0,5.24,2.35,5.24,5.24s-2.35,5.24-5.24,5.24-5.24-2.35-5.24-5.24,2.35-5.24,5.24-5.24Zm-34.98,98.58c-2.89,0-5.24-2.35-5.24-5.24s2.35-5.24,5.24-5.24,5.24,2.35,5.24,5.24-2.35,5.24-5.24,5.24Zm-34.47-33.01c0,2.89-2.35,5.24-5.24,5.24s-5.24-2.35-5.24-5.24,2.35-5.24,5.24-5.24,5.24,2.35,5.24,5.24ZM73.18,27.24c2.89,0,5.24,2.35,5.24,5.24s-2.35,5.24-5.24,5.24-5.24-2.35-5.24-5.24,2.35-5.24,5.24-5.24Zm-39.21,40.22c2.89,0,5.24,2.35,5.24,5.24s-2.35,5.24-5.24,5.24-5.24-2.35-5.24-5.24,2.35-5.24,5.24-5.24Z"/></svg>