<?xml version="1.0" encoding="UTF-8"?><svg id="Icon_Set" xmlns="http://www.w3.org/2000/svg" viewBox="0 0 689.01 692.22"><defs><style>.cls-1{fill:#312733;}</style></defs><path class="cls-1" d="M614,175.82c-.5,.06-1.02,.09-1.54,.08l-535.44-2.22c-6.39-.03-11.8-4.73-12.72-11.05-.91-6.33,2.94-12.37,9.06-14.21L565.86,.54c3.29-.98,6.86-.62,9.9,1.04,3.03,1.65,5.27,4.45,6.22,7.77l42.95,150.1c1.12,3.91,.33,8.11-2.12,11.34-2.14,2.82-5.33,4.63-8.81,5.03Zm-450.26-27.58l431.64,1.79-34.62-121L163.74,148.23Z"/><path class="cls-1" d="M611.13,692.22H56.01c-30.89,0-56.01-25.13-56.01-56.02V207.99c0-30.89,25.13-56.02,56.01-56.02H611.13c30.89,0,56.02,25.13,56.02,56.02v428.21c0,30.89-25.13,56.02-56.02,56.02ZM56.01,177.78c-16.65,0-30.2,13.55-30.2,30.21v428.21c0,16.66,13.55,30.21,30.2,30.21H611.13c16.66,0,30.21-13.55,30.21-30.21V207.99c0-16.66-13.55-30.21-30.21-30.21H56.01Z"/><g><path class="cls-1" d="M25.81,220.8H12.91c-7.13,0-12.91-5.78-12.91-12.91s5.78-12.91,12.91-12.91h12.91c7.13,0,12.91,5.78,12.91,12.91s-5.78,12.91-12.91,12.91Z"/><path class="cls-1" d="M548.53,220.8h-24.89c-7.13,0-12.91-5.78-12.91-12.91s5.78-12.91,12.91-12.91h24.89c7.13,0,12.91,5.78,12.91,12.91s-5.78,12.91-12.91,12.91Zm-74.68,0h-24.89c-7.13,0-12.91-5.78-12.91-12.91s5.78-12.91,12.91-12.91h24.89c7.13,0,12.91,5.78,12.91,12.91s-5.78,12.91-12.91,12.91Zm-74.67,0h-24.89c-7.13,0-12.91-5.78-12.91-12.91s5.78-12.91,12.91-12.91h24.89c7.13,0,12.91,5.78,12.91,12.91s-5.78,12.91-12.91,12.91Zm-74.67,0h-24.9c-7.13,0-12.91-5.78-12.91-12.91s5.78-12.91,12.91-12.91h24.9c7.13,0,12.91,5.78,12.91,12.91s-5.78,12.91-12.91,12.91Zm-74.68,0h-24.89c-7.13,0-12.91-5.78-12.91-12.91s5.78-12.91,12.91-12.91h24.89c7.13,0,12.91,5.78,12.91,12.91s-5.78,12.91-12.91,12.91Zm-74.67,0h-24.9c-7.13,0-12.91-5.78-12.91-12.91s5.78-12.91,12.91-12.91h24.9c7.13,0,12.91,5.78,12.91,12.91s-5.78,12.91-12.91,12.91Zm-74.68,0h-24.89c-7.13,0-12.91-5.78-12.91-12.91s5.78-12.91,12.91-12.91h24.89c7.13,0,12.91,5.78,12.91,12.91s-5.78,12.91-12.91,12.91Z"/><path class="cls-1" d="M611.22,233.71c-7.13,0-12.91-5.78-12.91-12.91-7.13,0-12.91-5.78-12.91-12.91s5.78-12.91,12.91-12.91h12.91c7.13,0,12.91,5.78,12.91,12.91v12.91c0,7.13-5.78,12.91-12.91,12.91Z"/><path class="cls-1" d="M611.22,588.93c-7.13,0-12.91-5.78-12.91-12.91v-23.69c0-7.13,5.78-12.91,12.91-12.91s12.91,5.78,12.91,12.91v23.69c0,7.13-5.78,12.91-12.91,12.91Zm0-71.05c-7.13,0-12.91-5.78-12.91-12.91v-23.68c0-7.13,5.78-12.91,12.91-12.91s12.91,5.78,12.91,12.91v23.68c0,7.13-5.78,12.91-12.91,12.91Zm0-71.04c-7.13,0-12.91-5.78-12.91-12.91v-23.68c0-7.13,5.78-12.91,12.91-12.91s12.91,5.78,12.91,12.91v23.68c0,7.13-5.78,12.91-12.91,12.91Zm0-71.05c-7.13,0-12.91-5.78-12.91-12.91v-23.68c0-7.13,5.78-12.91,12.91-12.91s12.91,5.78,12.91,12.91v23.68c0,7.13-5.78,12.91-12.91,12.91Zm0-71.04c-7.13,0-12.91-5.78-12.91-12.91v-23.68c0-7.13,5.78-12.91,12.91-12.91s12.91,5.78,12.91,12.91v23.68c0,7.13-5.78,12.91-12.91,12.91Z"/><path class="cls-1" d="M611.22,649.2h-12.91c-7.13,0-12.91-5.78-12.91-12.91s5.78-12.91,12.91-12.91c0-7.13,5.78-12.91,12.91-12.91s12.91,5.78,12.91,12.91v12.91c0,7.13-5.78,12.91-12.91,12.91Z"/><path class="cls-1" d="M548.53,649.2h-24.89c-7.13,0-12.91-5.78-12.91-12.91s5.78-12.91,12.91-12.91h24.89c7.13,0,12.91,5.78,12.91,12.91s-5.78,12.91-12.91,12.91Zm-74.67,0h-24.9c-7.13,0-12.91-5.78-12.91-12.91s5.78-12.91,12.91-12.91h24.9c7.13,0,12.91,5.78,12.91,12.91s-5.78,12.91-12.91,12.91Zm-74.68,0h-24.89c-7.13,0-12.91-5.78-12.91-12.91s5.78-12.91,12.91-12.91h24.89c7.13,0,12.91,5.78,12.91,12.91s-5.78,12.91-12.91,12.91Zm-74.67,0h-24.9c-7.13,0-12.91-5.78-12.91-12.91s5.78-12.91,12.91-12.91h24.9c7.13,0,12.91,5.78,12.91,12.91s-5.78,12.91-12.91,12.91Zm-74.68,0h-24.89c-7.13,0-12.91-5.78-12.91-12.91s5.78-12.91,12.91-12.91h24.89c7.13,0,12.91,5.78,12.91,12.91s-5.78,12.91-12.91,12.91Zm-74.67,0h-24.89c-7.13,0-12.91-5.78-12.91-12.91s5.78-12.91,12.91-12.91h24.89c7.13,0,12.91,5.78,12.91,12.91s-5.78,12.91-12.91,12.91Zm-74.68,0h-24.89c-7.13,0-12.91-5.78-12.91-12.91s5.78-12.91,12.91-12.91h24.89c7.13,0,12.91,5.78,12.91,12.91s-5.78,12.91-12.91,12.91Z"/><path class="cls-1" d="M25.81,649.2H12.91c-7.13,0-12.91-5.78-12.91-12.91s5.78-12.91,12.91-12.91h12.91c7.13,0,12.91,5.78,12.91,12.91s-5.78,12.91-12.91,12.91Z"/></g><path class="cls-1" d="M522.31,441.09c-7.13,0-12.91-5.78-12.91-12.91v-10.4c0-7.13,5.78-12.91,12.91-12.91s12.91,5.78,12.91,12.91v10.4c0,7.13-5.78,12.91-12.91,12.91Z"/><path class="cls-1" d="M647.93,548.37c-4.25,0-8.54-.66-12.75-2.02l-85.14-27.39c-12.67-4.07-23.68-12.45-30.99-23.57-3.92-5.95-2.27-13.96,3.69-17.87,5.95-3.93,13.96-2.27,17.87,3.69,4.1,6.22,10.25,10.9,17.34,13.18l85.14,27.39c4.74,1.52,9.76,.72,13.78-2.22,4.02-2.93,6.33-7.47,6.33-12.45v-170.04c0-4.98-2.31-9.52-6.33-12.44-4.02-2.93-9.05-3.74-13.78-2.22l-85.14,27.39c-9.07,2.92-16.41,9.63-20.14,18.4-2.79,6.57-10.36,9.61-16.92,6.84-6.56-2.79-9.62-10.36-6.84-16.92,6.65-15.69,19.77-27.67,35.99-32.89l85.14-27.39c12.68-4.09,26.13-1.93,36.89,5.93,10.77,7.84,16.94,19.98,16.94,33.3v170.04c0,13.32-6.18,25.46-16.94,33.31-7.19,5.24-15.59,7.94-24.14,7.94Z"/><path class="cls-1" d="M597.59,471.56c-27.28,0-49.47-22.19-49.47-49.47s22.19-49.47,49.47-49.47,49.47,22.19,49.47,49.47-22.19,49.47-49.47,49.47Zm0-73.13c-13.05,0-23.66,10.61-23.66,23.66s10.61,23.66,23.66,23.66,23.66-10.61,23.66-23.66-10.61-23.66-23.66-23.66Z"/></svg>